<svg id="svg" version="1.1" xmlns="http://www.w3.org/2000/svg" xmlns:xlink="http://www.w3.org/1999/xlink" width="400" height="400" viewBox="0, 0, 400,400"><g id="svgg"><path id="path0" d="M189.800 58.064 C 172.646 59.197,163.013 76.336,170.872 91.741 C 172.155 94.255,177.466 99.312,180.200 100.621 C 181.520 101.253,182.657 101.902,182.726 102.063 C 182.795 102.224,183.110 102.256,183.426 102.135 C 183.742 102.014,184.001 102.069,184.002 102.257 C 184.003 102.446,184.844 102.649,185.872 102.709 C 186.899 102.769,187.933 102.968,188.170 103.152 C 188.765 103.614,194.948 102.944,197.391 102.153 C 215.073 96.425,218.958 73.786,204.213 62.410 C 202.022 60.719,196.697 58.400,195.008 58.400 C 194.490 58.400,194.007 58.265,193.933 58.100 C 193.860 57.935,192.000 57.919,189.800 58.064 M194.000 61.240 C 194.000 61.424,194.263 61.474,194.585 61.350 C 195.325 61.067,199.200 62.331,199.200 62.856 C 199.200 63.071,199.380 63.136,199.600 63.000 C 199.820 62.864,200.000 62.943,200.000 63.176 C 200.000 63.409,200.270 63.600,200.600 63.600 C 200.930 63.600,201.200 63.791,201.200 64.024 C 201.200 64.257,201.369 64.343,201.575 64.215 C 201.782 64.088,202.097 64.216,202.275 64.501 C 202.454 64.786,203.075 65.321,203.656 65.690 C 204.769 66.397,207.868 70.827,208.910 73.200 C 211.593 79.311,210.243 87.818,205.711 93.348 C 204.371 94.985,201.122 97.599,200.731 97.357 C 200.549 97.245,200.400 97.354,200.400 97.600 C 200.400 97.846,200.220 97.936,200.000 97.800 C 199.780 97.664,199.600 97.729,199.600 97.943 C 199.600 98.475,196.168 99.751,195.631 99.419 C 195.394 99.273,195.200 99.355,195.200 99.602 C 195.200 99.848,194.885 100.011,194.500 99.964 C 194.115 99.916,193.469 100.020,193.064 100.195 C 191.397 100.915,183.600 99.714,183.600 98.737 C 183.600 98.526,183.433 98.456,183.230 98.581 C 182.804 98.845,180.800 98.018,180.800 97.579 C 180.800 97.418,180.371 97.179,179.847 97.048 C 174.271 95.648,169.577 82.816,171.845 75.173 C 173.085 70.993,177.805 64.400,179.558 64.400 C 179.801 64.400,180.000 64.209,180.000 63.976 C 180.000 63.743,180.180 63.664,180.400 63.800 C 180.620 63.936,180.800 63.860,180.800 63.631 C 180.800 63.402,181.295 63.094,181.900 62.946 C 182.505 62.798,183.111 62.507,183.248 62.299 C 183.384 62.092,183.969 61.894,184.547 61.861 C 185.126 61.827,185.600 61.644,185.600 61.453 C 185.600 61.263,185.960 61.201,186.400 61.316 C 186.839 61.431,187.280 61.395,187.378 61.236 C 187.629 60.829,194.000 60.833,194.000 61.240 M154.400 97.367 C 152.280 98.623,142.167 104.361,139.892 105.598 C 137.008 107.166,132.400 110.038,132.400 110.267 C 132.400 110.889,135.282 115.600,135.662 115.600 C 135.894 115.600,137.525 114.790,139.285 113.800 C 141.046 112.810,142.611 112.000,142.763 112.000 C 142.915 112.000,143.264 111.776,143.537 111.503 C 143.811 111.229,145.179 110.374,146.578 109.603 C 154.874 105.027,160.800 101.454,160.800 101.030 C 160.800 100.762,160.246 99.520,159.570 98.271 C 158.105 95.566,157.591 95.476,154.400 97.367 M249.000 114.068 C 249.440 114.312,250.079 114.712,250.420 114.956 C 250.760 115.200,250.615 114.995,250.097 114.500 C 249.579 114.005,248.940 113.605,248.678 113.612 C 248.415 113.619,248.560 113.824,249.000 114.068 M243.000 114.800 C 242.602 115.240,242.394 115.600,242.538 115.600 C 242.682 115.600,243.160 115.240,243.600 114.800 C 244.040 114.360,244.248 114.000,244.062 114.000 C 243.876 114.000,243.398 114.360,243.000 114.800 M236.105 118.687 C 236.714 118.779,237.614 118.777,238.105 118.682 C 238.597 118.587,238.100 118.511,237.000 118.514 C 235.900 118.517,235.497 118.595,236.105 118.687 M255.500 118.682 C 255.995 118.778,256.805 118.778,257.300 118.682 C 257.795 118.587,257.390 118.509,256.400 118.509 C 255.410 118.509,255.005 118.587,255.500 118.682 M220.300 122.588 C 219.763 123.326,219.600 124.347,219.600 126.968 C 219.600 130.279,219.569 130.393,218.600 130.636 L 217.600 130.887 217.600 165.243 C 217.600 184.140,217.702 199.600,217.826 199.600 C 217.951 199.600,218.376 199.427,218.772 199.215 C 219.290 198.938,219.921 199.050,221.030 199.615 C 222.504 200.367,223.517 200.401,244.985 200.412 C 261.297 200.421,267.197 200.543,266.653 200.858 C 265.933 201.277,265.910 202.362,266.008 231.146 C 266.064 247.566,266.085 262.935,266.055 265.300 L 266.000 269.600 262.260 269.600 C 260.203 269.600,257.953 269.798,257.260 270.039 L 256.000 270.478 256.000 304.639 C 256.000 325.352,256.146 338.800,256.371 338.800 C 256.575 338.800,258.060 338.193,259.671 337.451 C 261.282 336.709,263.438 335.723,264.462 335.259 C 265.486 334.795,268.616 333.331,271.417 332.007 C 274.219 330.683,276.756 329.600,277.055 329.600 C 277.510 329.600,277.600 324.221,277.600 296.880 L 277.600 264.160 281.700 262.292 C 283.955 261.264,286.295 260.242,286.900 260.021 L 288.000 259.620 288.000 225.383 L 288.000 191.146 287.100 191.423 C 286.605 191.576,283.987 192.758,281.282 194.050 C 278.578 195.343,276.220 196.400,276.043 196.400 C 275.383 196.400,275.204 187.764,275.202 155.929 L 275.200 123.258 274.146 122.429 C 273.188 121.676,272.555 121.600,267.202 121.600 L 261.311 121.600 261.494 122.555 C 261.594 123.081,261.473 123.891,261.224 124.355 C 260.925 124.913,260.913 125.200,261.186 125.200 C 261.414 125.200,261.600 124.930,261.600 124.600 C 261.600 124.096,262.467 124.000,267.002 124.000 L 272.404 124.000 272.302 159.700 L 272.200 195.400 247.500 195.503 L 222.800 195.606 222.800 159.803 L 222.800 124.000 227.400 124.000 L 232.000 124.000 232.000 122.800 L 232.000 121.600 226.500 121.613 C 221.158 121.625,220.980 121.653,220.300 122.588 M163.482 131.500 C 163.391 131.665,163.336 136.930,163.359 143.200 L 163.400 154.600 170.000 154.600 L 176.600 154.600 176.706 142.900 L 176.812 131.200 170.230 131.200 C 166.609 131.200,163.573 131.335,163.482 131.500 M84.432 137.552 C 84.408 137.957,84.026 138.044,83.000 137.877 C 82.149 137.739,81.600 137.814,81.600 138.068 C 81.600 138.298,81.330 138.382,81.000 138.255 C 80.670 138.129,80.400 138.210,80.400 138.436 C 80.400 138.662,80.235 138.745,80.034 138.621 C 79.833 138.497,79.608 138.550,79.534 138.740 C 79.202 139.594,72.927 142.571,70.873 142.850 C 66.512 143.441,64.602 147.086,65.572 152.962 C 66.473 158.421,68.976 162.394,68.556 157.700 C 68.255 154.330,69.126 153.567,70.237 156.228 C 71.137 158.381,71.824 157.776,71.670 154.966 C 71.390 149.845,72.609 149.117,81.320 149.204 C 88.764 149.278,89.546 149.084,90.297 146.980 C 90.917 145.242,90.748 141.502,90.009 140.611 C 89.681 140.215,89.700 140.024,90.083 139.870 C 90.492 139.706,90.488 139.657,90.063 139.632 C 89.768 139.614,89.069 139.240,88.509 138.800 C 87.950 138.360,86.901 138.000,86.179 138.000 C 85.457 138.000,84.776 137.775,84.665 137.500 C 84.517 137.133,84.455 137.147,84.432 137.552 M66.800 168.372 C 66.800 168.576,67.598 170.462,68.573 172.563 C 69.548 174.664,70.739 177.602,71.219 179.092 C 74.093 188.007,74.710 188.796,78.811 188.799 C 84.299 188.802,85.633 182.383,82.036 173.285 C 81.576 172.122,81.200 170.846,81.200 170.449 C 81.200 169.723,79.486 168.647,79.040 169.093 C 78.908 169.225,78.800 170.190,78.800 171.238 C 78.800 174.642,77.282 175.177,73.289 173.181 C 70.829 171.952,68.400 169.669,68.400 168.586 C 68.400 168.264,68.040 168.000,67.600 168.000 C 67.160 168.000,66.800 168.167,66.800 168.372 M60.143 169.293 C 60.020 169.492,59.673 169.560,59.372 169.445 C 59.072 169.329,58.717 169.410,58.585 169.624 C 58.453 169.838,58.177 169.909,57.972 169.783 C 57.768 169.656,57.600 169.743,57.600 169.976 C 57.600 170.209,57.465 170.381,57.300 170.357 C 56.783 170.282,55.200 170.881,55.200 171.151 C 55.200 171.292,54.746 171.898,54.191 172.496 C 53.637 173.094,53.219 173.632,53.264 173.692 C 53.442 173.929,52.315 177.821,51.936 178.277 C 51.713 178.545,51.652 178.961,51.800 179.200 C 51.948 179.439,51.858 179.889,51.600 180.200 C 51.342 180.511,51.247 180.953,51.389 181.182 C 51.531 181.412,51.504 181.825,51.330 182.100 C 51.155 182.375,50.969 183.050,50.916 183.600 C 50.735 185.486,50.503 187.000,50.396 187.000 C 50.245 187.000,49.987 189.426,49.886 191.800 L 49.800 193.800 55.948 194.359 L 62.096 194.918 61.847 196.959 C 61.710 198.082,61.487 199.405,61.352 199.900 C 61.009 201.157,61.833 201.072,64.969 199.526 L 67.552 198.252 67.784 195.826 C 68.306 190.365,67.975 183.479,67.166 182.979 C 66.965 182.855,66.800 182.344,66.800 181.844 C 66.800 180.016,64.717 174.029,62.691 170.032 C 62.200 169.064,60.575 168.593,60.143 169.293 M109.429 170.368 C 109.083 170.750,108.800 171.198,108.800 171.364 C 108.800 171.529,108.126 172.679,107.303 173.920 C 106.480 175.160,105.445 176.825,105.003 177.619 C 102.818 181.548,96.578 191.510,96.379 191.387 C 96.254 191.310,96.111 190.471,96.061 189.523 C 95.876 186.002,95.096 183.896,94.214 184.540 C 93.457 185.094,93.455 185.148,94.160 186.711 C 95.376 189.409,94.471 191.360,91.247 192.991 L 89.894 193.675 90.148 196.102 C 90.579 200.227,92.478 202.444,92.728 199.114 C 92.876 197.136,93.241 196.814,95.352 196.806 L 96.903 196.800 96.632 194.400 C 96.309 191.548,95.688 191.693,103.600 192.777 C 109.606 193.600,109.217 193.717,111.009 190.555 L 112.312 188.256 111.056 187.628 C 106.108 185.155,108.750 179.894,114.362 181.044 L 116.356 181.452 119.338 176.325 C 120.978 173.505,122.203 171.130,122.060 171.046 C 121.917 170.963,119.662 170.764,117.049 170.605 C 114.435 170.445,111.793 170.170,111.178 169.994 C 110.332 169.751,109.905 169.842,109.429 170.368 M84.671 170.685 C 84.562 170.861,84.833 171.724,85.271 172.602 C 86.246 174.554,87.842 179.918,88.216 182.500 C 88.539 184.736,88.265 184.671,91.873 183.358 C 95.138 182.170,95.084 182.455,92.877 178.053 C 91.096 174.503,91.029 174.400,90.505 174.400 C 90.227 174.400,90.000 174.163,90.000 173.874 C 90.000 173.585,89.415 173.041,88.700 172.665 C 87.985 172.290,86.830 171.619,86.134 171.174 C 85.438 170.730,84.779 170.510,84.671 170.685 M196.694 200.310 L 195.187 201.000 195.094 214.846 L 195.000 228.692 196.500 228.653 L 198.000 228.614 198.000 214.912 L 198.000 201.211 199.400 200.626 C 200.170 200.304,200.800 199.942,200.800 199.820 C 200.800 199.340,198.114 199.660,196.694 200.310 M147.500 201.099 L 140.800 201.219 140.800 212.810 L 140.800 224.400 147.600 224.400 L 154.400 224.400 154.400 212.600 C 154.400 206.110,154.355 200.840,154.300 200.890 C 154.245 200.939,151.185 201.033,147.500 201.099 M212.000 212.800 L 212.000 224.400 218.800 224.400 L 225.600 224.400 225.600 212.800 L 225.600 201.200 218.800 201.200 L 212.000 201.200 212.000 212.800 M71.024 208.283 C 70.693 209.143,70.872 209.229,71.712 208.615 C 72.299 208.186,72.322 208.056,71.845 207.873 C 71.526 207.750,71.157 207.934,71.024 208.283 M67.400 210.400 C 67.074 210.928,67.552 211.677,68.028 211.383 C 68.513 211.083,68.510 210.000,68.024 210.000 C 67.817 210.000,67.536 210.180,67.400 210.400 M60.500 214.090 C 59.775 214.438,59.605 214.841,59.628 216.161 C 59.649 217.366,59.738 217.591,59.965 217.009 C 60.135 216.574,60.706 216.117,61.233 215.992 C 61.909 215.833,62.193 215.487,62.196 214.817 C 62.201 213.698,61.733 213.497,60.500 214.090 M211.976 236.849 C 207.931 238.796,208.806 244.000,213.179 244.000 C 217.250 244.000,218.470 238.148,214.647 236.956 C 214.181 236.811,213.710 236.573,213.600 236.428 C 213.490 236.283,212.759 236.472,211.976 236.849 M164.000 240.400 C 164.000 243.688,164.067 244.000,164.771 244.000 C 165.724 244.000,165.834 243.479,165.668 239.756 C 165.553 237.153,165.445 236.800,164.768 236.800 C 164.067 236.800,164.000 237.116,164.000 240.400 M168.266 237.100 C 167.689 238.055,168.144 243.649,168.828 244.015 C 169.950 244.615,170.000 244.537,170.000 242.200 C 170.000 240.918,170.177 240.000,170.424 240.000 C 170.657 240.000,170.736 240.180,170.600 240.400 C 170.464 240.620,170.543 240.800,170.776 240.800 C 171.009 240.800,171.200 241.070,171.200 241.400 C 171.200 241.730,171.380 242.000,171.600 242.000 C 171.820 242.000,172.000 242.270,172.000 242.600 C 172.000 242.930,172.180 243.200,172.400 243.200 C 172.620 243.200,172.800 243.445,172.800 243.745 C 172.800 244.110,173.129 244.226,173.800 244.098 C 175.357 243.800,175.375 236.800,173.819 236.800 C 172.877 236.800,172.847 236.879,173.075 238.800 C 173.237 240.168,173.167 240.800,172.856 240.800 C 172.605 240.800,172.400 240.530,172.400 240.200 C 172.400 239.870,172.253 239.600,172.074 239.600 C 171.895 239.600,171.448 238.970,171.081 238.200 C 170.443 236.864,168.797 236.221,168.266 237.100 M176.751 237.161 C 177.054 237.353,177.179 237.711,177.028 237.955 C 176.876 238.200,176.963 238.400,177.219 238.400 C 177.476 238.400,177.582 238.670,177.455 239.000 C 177.329 239.330,177.399 239.600,177.613 239.600 C 177.826 239.600,177.972 239.735,177.938 239.900 C 177.904 240.065,178.174 240.869,178.538 241.687 C 178.902 242.505,179.200 243.360,179.200 243.587 C 179.200 244.350,181.224 244.360,181.647 243.600 C 181.989 242.984,183.260 240.037,183.414 239.500 C 183.461 239.335,183.537 239.155,183.583 239.100 C 184.227 238.323,183.923 236.756,183.150 236.870 C 182.453 236.972,182.081 237.550,181.405 239.580 C 180.867 241.193,180.430 241.972,180.237 241.660 C 180.068 241.386,180.029 240.900,180.152 240.581 C 180.275 240.261,180.208 240.000,180.004 240.000 C 179.799 240.000,179.416 239.280,179.153 238.400 C 178.727 236.979,178.535 236.801,177.437 236.806 C 176.576 236.810,176.368 236.919,176.751 237.161 M186.000 240.400 L 186.000 244.000 188.400 244.000 C 190.267 244.000,190.800 243.867,190.800 243.400 C 190.800 243.000,190.400 242.800,189.600 242.800 C 188.940 242.800,188.400 242.635,188.400 242.433 C 188.400 242.231,188.291 241.781,188.157 241.433 C 187.963 240.928,188.206 240.800,189.357 240.800 C 190.373 240.800,190.800 240.622,190.800 240.200 C 190.800 239.781,190.378 239.600,189.400 239.600 C 188.267 239.600,188.000 239.448,188.000 238.800 C 188.000 238.152,188.267 238.000,189.400 238.000 C 190.378 238.000,190.800 237.819,190.800 237.400 C 190.800 236.933,190.267 236.800,188.400 236.800 L 186.000 236.800 186.000 240.400 M193.200 240.357 C 193.200 243.040,193.338 243.967,193.761 244.130 C 194.623 244.460,194.800 244.047,194.800 241.710 C 194.800 240.351,194.950 239.646,195.207 239.804 C 195.430 239.942,195.521 240.204,195.409 240.386 C 195.296 240.567,195.499 240.829,195.860 240.968 C 196.220 241.106,196.421 241.312,196.308 241.426 C 195.941 241.793,198.154 244.000,198.889 244.000 C 199.518 244.000,199.600 243.583,199.600 240.400 C 199.600 237.067,199.541 236.800,198.800 236.800 C 197.957 236.800,197.878 237.089,197.986 239.800 L 198.050 241.400 196.594 239.100 C 194.216 235.342,193.200 235.719,193.200 240.357 M201.733 237.400 C 201.733 237.779,202.114 238.000,202.767 237.999 C 203.800 237.998,203.800 237.998,203.673 241.099 L 203.545 244.200 204.800 244.200 L 206.055 244.200 205.927 241.099 C 205.805 238.112,205.833 237.998,206.700 237.999 C 207.234 238.000,207.600 237.756,207.600 237.400 C 207.600 236.921,207.007 236.800,204.667 236.800 C 202.326 236.800,201.733 236.921,201.733 237.400 M219.200 240.400 C 219.200 243.733,219.259 244.000,220.000 244.000 C 220.648 244.000,220.800 243.733,220.800 242.600 C 220.800 240.877,221.335 240.795,222.006 242.415 C 222.609 243.871,223.513 244.415,224.600 243.978 C 225.059 243.793,225.159 243.644,224.833 243.628 C 224.522 243.613,224.372 243.495,224.500 243.367 C 224.628 243.238,224.359 242.759,223.902 242.302 L 223.070 241.470 224.068 240.612 C 226.203 238.776,224.788 236.800,221.339 236.800 L 219.200 236.800 219.200 240.400 M226.800 236.944 C 226.800 237.023,227.338 238.148,227.995 239.444 C 228.652 240.740,229.192 242.295,229.195 242.900 C 229.199 243.805,229.377 244.000,230.200 244.000 C 231.047 244.000,231.200 243.814,231.200 242.789 C 231.200 242.122,231.743 240.502,232.406 239.189 L 233.612 236.800 232.615 236.800 C 231.868 236.800,231.427 237.174,230.850 238.299 L 230.081 239.798 229.367 238.299 C 228.775 237.059,226.800 236.016,226.800 236.944 M214.301 238.616 C 216.007 239.811,215.009 242.567,212.956 242.331 C 211.396 242.152,210.786 240.492,211.743 239.031 C 212.521 237.843,213.071 237.754,214.301 238.616 M222.728 238.513 C 223.291 239.191,222.819 239.825,221.700 239.894 C 220.997 239.938,220.800 239.736,220.800 238.975 C 220.800 237.892,221.978 237.610,222.728 238.513 M195.185 251.700 C 195.103 254.542,195.265 269.399,195.380 269.513 C 195.593 269.726,197.337 268.771,197.705 268.240 C 198.030 267.773,198.030 252.549,197.705 251.700 C 197.600 251.425,196.994 251.200,196.357 251.200 C 195.706 251.200,195.194 251.419,195.185 251.700 M185.900 270.120 L 184.800 270.554 184.800 304.677 C 184.800 326.036,184.943 338.800,185.181 338.800 C 185.391 338.800,186.021 338.591,186.581 338.336 L 187.600 337.872 187.600 304.343 L 187.600 270.815 188.600 270.564 C 189.150 270.426,189.600 270.153,189.600 269.957 C 189.600 269.477,187.266 269.580,185.900 270.120 M201.999 282.300 L 202.000 294.000 208.600 294.000 L 215.200 294.000 215.200 282.419 L 215.200 270.837 208.599 270.719 L 201.999 270.600 201.999 282.300 M130.800 282.400 L 130.800 294.000 137.400 294.000 L 144.000 294.000 144.000 282.400 L 144.000 270.800 137.400 270.800 L 130.800 270.800 130.800 282.400 M82.695 335.457 C 82.582 335.646,82.360 338.531,82.201 341.869 L 81.912 347.938 83.656 348.197 C 88.005 348.845,105.781 348.632,105.917 347.931 C 106.004 347.482,105.413 346.902,104.123 346.170 C 99.331 343.453,94.042 339.102,92.253 336.406 C 91.569 335.375,83.239 334.548,82.695 335.457 M58.116 337.053 C 57.811 337.181,57.718 337.691,57.866 338.428 C 58.004 339.118,57.930 339.600,57.687 339.600 C 57.461 339.600,57.369 339.960,57.484 340.400 C 57.606 340.867,57.496 341.200,57.220 341.200 C 56.928 341.200,56.844 341.507,57.000 342.000 C 57.152 342.479,57.072 342.800,56.800 342.800 C 56.528 342.800,56.448 343.121,56.600 343.600 C 56.740 344.040,56.691 344.400,56.493 344.400 C 56.294 344.400,56.147 345.255,56.166 346.300 L 56.200 348.200 57.800 348.077 C 58.680 348.009,60.675 348.164,62.233 348.422 C 65.464 348.956,67.405 348.353,67.801 346.693 C 68.016 345.792,67.586 340.257,67.203 339.000 C 67.136 338.780,67.063 338.240,67.041 337.800 C 67.001 337.013,59.673 336.400,58.116 337.053 " stroke="none" fill="#000f2d" fill-rule="evenodd"></path><path id="path1" d="M230.543 134.381 C 228.140 135.394,227.626 138.878,229.631 140.564 C 231.298 141.967,232.940 141.921,234.431 140.431 C 237.270 137.592,234.213 132.836,230.543 134.381 M232.836 138.007 C 230.547 139.269,230.000 139.428,230.000 138.833 C 230.000 138.631,229.891 138.181,229.757 137.833 C 229.624 137.485,229.714 137.200,229.957 137.200 C 230.201 137.200,230.400 137.470,230.400 137.800 C 230.400 138.567,230.686 138.538,232.400 137.600 C 233.170 137.178,234.070 136.829,234.400 136.824 C 234.730 136.819,234.026 137.351,232.836 138.007 M229.382 149.782 C 227.687 151.476,228.140 154.398,230.274 155.535 C 233.857 157.443,237.481 152.644,234.618 149.782 C 233.254 148.417,230.746 148.417,229.382 149.782 M234.650 151.519 C 234.092 152.421,230.343 153.755,229.980 153.181 C 229.492 152.410,229.502 151.600,230.000 151.600 C 230.220 151.600,230.400 151.870,230.400 152.200 C 230.400 152.967,230.686 152.938,232.400 152.000 C 233.849 151.206,234.994 150.962,234.650 151.519 M229.458 164.181 C 228.012 165.521,227.976 168.012,229.382 169.418 C 230.731 170.767,233.087 170.767,234.542 169.419 C 236.935 167.201,235.300 163.200,232.000 163.200 C 230.980 163.200,230.186 163.506,229.458 164.181 M64.000 168.388 C 63.670 168.605,63.064 168.677,62.653 168.549 C 62.242 168.421,61.979 168.470,62.070 168.658 C 62.161 168.846,62.637 169.900,63.128 171.000 C 63.619 172.100,64.277 173.540,64.591 174.200 C 65.374 175.851,66.800 180.748,66.800 181.787 C 66.800 182.256,66.961 182.811,67.157 183.020 C 67.823 183.729,68.269 190.130,67.934 194.169 C 67.753 196.352,67.648 198.179,67.702 198.230 C 67.799 198.321,76.947 194.268,82.862 191.513 C 85.683 190.200,85.992 189.934,86.782 188.149 C 87.253 187.082,88.022 185.803,88.489 185.305 C 88.957 184.807,89.149 184.400,88.915 184.400 C 88.682 184.400,88.367 183.545,88.216 182.500 C 87.869 180.108,86.270 174.583,85.465 173.000 C 85.129 172.340,84.797 171.536,84.727 171.214 C 84.575 170.513,83.007 169.600,81.954 169.600 C 80.961 169.600,80.984 170.623,82.036 173.285 C 85.633 182.383,84.299 188.802,78.811 188.799 C 74.720 188.796,74.083 187.987,71.251 179.186 C 68.574 170.868,66.019 167.064,64.000 168.388 M230.200 178.083 C 227.586 179.582,227.764 183.435,230.500 184.585 C 233.043 185.655,235.600 183.953,235.600 181.191 C 235.600 178.546,232.502 176.763,230.200 178.083 M89.329 193.478 C 88.851 193.572,86.940 194.949,85.084 196.540 C 83.227 198.130,80.799 200.125,79.688 200.972 C 78.330 202.008,77.735 202.723,77.872 203.156 C 78.021 203.628,77.977 203.664,77.709 203.292 C 77.432 202.907,76.618 203.303,74.371 204.914 C 69.980 208.062,65.929 210.656,62.576 212.464 C 59.616 214.061,58.827 214.699,60.450 214.184 C 61.018 214.004,61.210 214.060,61.029 214.353 C 60.857 214.632,60.995 214.700,61.413 214.540 C 61.942 214.337,61.965 214.217,61.534 213.914 C 61.109 213.616,61.123 213.573,61.600 213.704 C 62.605 213.980,62.342 215.779,61.275 215.931 C 60.118 216.095,59.600 217.415,59.600 220.202 C 59.600 221.385,59.409 222.471,59.177 222.614 C 58.934 222.765,58.862 223.372,59.008 224.038 C 59.155 224.707,59.096 225.200,58.869 225.200 C 58.652 225.200,58.569 225.560,58.684 226.000 C 58.799 226.440,58.709 226.800,58.484 226.800 C 58.259 226.800,58.169 227.160,58.284 227.600 C 58.399 228.040,58.297 228.400,58.057 228.400 C 57.785 228.400,57.711 228.853,57.860 229.600 C 58.010 230.352,57.936 230.800,57.660 230.800 C 57.385 230.800,57.309 231.247,57.458 231.988 C 57.588 232.641,57.558 233.496,57.390 233.888 C 56.711 235.475,56.703 236.825,57.010 293.856 L 57.219 332.712 58.110 332.954 C 64.392 334.661,67.752 333.582,68.238 329.700 C 68.327 328.985,68.487 327.815,68.592 327.100 C 69.120 323.529,69.495 320.372,69.779 317.103 C 69.870 316.060,70.038 314.890,70.153 314.503 C 70.268 314.116,70.480 312.270,70.625 310.400 C 70.771 308.530,70.946 306.550,71.014 306.000 C 71.815 299.592,74.773 270.942,76.212 255.664 C 76.581 251.742,77.202 252.484,77.362 257.038 C 77.430 258.997,77.624 260.923,77.793 261.319 C 77.962 261.714,78.009 262.839,77.899 263.819 C 77.778 264.891,77.860 265.600,78.105 265.600 C 78.359 265.600,78.427 266.425,78.285 267.795 C 78.146 269.143,78.221 270.090,78.480 270.249 C 78.737 270.408,78.814 271.346,78.679 272.655 C 78.557 273.835,78.618 274.800,78.814 274.800 C 79.010 274.800,79.110 276.955,79.035 279.593 C 78.944 282.837,79.034 284.302,79.316 284.129 C 79.601 283.952,79.650 286.461,79.474 292.136 C 79.292 297.984,79.344 300.400,79.652 300.400 C 79.950 300.400,80.067 302.330,80.023 306.500 C 79.951 313.281,80.618 324.404,81.335 328.400 C 81.930 331.713,83.012 332.398,87.650 332.399 C 93.960 332.401,93.321 333.793,94.167 318.200 C 95.884 286.535,95.999 242.787,94.398 230.400 C 94.184 228.750,93.913 226.161,93.795 224.646 C 93.677 223.131,93.486 221.739,93.371 221.553 C 93.217 221.304,92.796 206.399,92.800 201.300 C 92.800 201.025,92.595 200.845,92.343 200.900 C 91.394 201.108,90.295 198.424,90.247 195.775 C 90.221 194.362,90.200 193.229,90.200 193.258 C 90.200 193.286,89.808 193.385,89.329 193.478 M71.712 208.615 C 70.872 209.229,70.693 209.143,71.024 208.283 C 71.157 207.934,71.526 207.750,71.845 207.873 C 72.322 208.056,72.299 208.186,71.712 208.615 M68.400 210.576 C 68.400 210.893,68.232 211.256,68.028 211.383 C 67.552 211.677,67.074 210.928,67.400 210.400 C 67.768 209.805,68.400 209.916,68.400 210.576 " stroke="none" fill="#7987cb" fill-rule="evenodd"></path><path id="path2" d="M174.473 64.450 C 173.523 65.346,172.814 66.148,172.898 66.231 C 172.982 66.315,173.841 65.577,174.808 64.592 C 177.001 62.357,176.787 62.266,174.473 64.450 M210.120 80.400 C 210.120 81.610,210.195 82.105,210.287 81.500 C 210.378 80.895,210.378 79.905,210.287 79.300 C 210.195 78.695,210.120 79.190,210.120 80.400 M169.609 89.625 C 169.604 90.000,167.720 91.314,164.882 92.921 C 158.116 96.752,158.538 96.318,159.580 98.361 C 160.600 100.361,160.094 100.475,166.456 96.812 C 169.465 95.079,171.692 94.041,172.146 94.157 C 172.836 94.335,172.830 94.283,172.071 93.475 C 171.619 92.994,170.882 91.790,170.434 90.800 C 169.985 89.810,169.614 89.281,169.609 89.625 M204.175 94.455 C 203.005 95.705,203.005 95.707,204.066 95.031 C 204.653 94.658,205.232 94.093,205.354 93.776 C 205.673 92.944,205.491 93.049,204.175 94.455 M190.305 99.883 C 190.802 99.979,191.522 99.975,191.905 99.875 C 192.287 99.775,191.880 99.696,191.000 99.701 C 190.120 99.705,189.807 99.787,190.305 99.883 M82.829 108.254 C 80.321 111.443,84.467 114.925,87.240 111.958 C 89.241 109.815,88.120 107.200,85.200 107.200 C 84.011 107.200,83.468 107.441,82.829 108.254 M246.800 113.200 C 247.240 113.484,247.027 113.562,246.000 113.494 C 245.230 113.442,244.555 113.535,244.500 113.700 C 244.354 114.138,242.845 115.600,242.538 115.600 C 242.394 115.600,242.529 115.275,242.838 114.878 C 243.147 114.481,242.895 114.675,242.277 115.310 C 241.381 116.230,241.250 116.578,241.626 117.032 C 241.886 117.344,241.986 117.623,241.849 117.650 C 241.712 117.678,241.465 117.725,241.300 117.756 C 241.135 117.787,240.730 117.987,240.400 118.200 C 240.070 118.413,238.411 118.608,236.713 118.634 C 233.544 118.681,232.172 119.229,232.577 120.285 C 232.695 120.591,232.613 120.732,232.395 120.597 C 232.178 120.463,232.000 120.543,232.000 120.776 C 232.000 121.071,222.696 121.202,201.500 121.206 C 179.805 121.210,171.173 121.335,171.600 121.638 C 172.066 121.970,171.965 122.014,171.147 121.836 C 170.116 121.613,168.875 122.106,160.200 126.185 C 158.660 126.909,157.074 127.612,156.675 127.748 C 156.253 127.891,156.069 128.189,156.236 128.459 C 156.404 128.731,156.350 128.816,156.105 128.665 C 155.542 128.317,151.920 129.947,152.210 130.417 C 152.344 130.633,151.930 130.686,151.220 130.544 C 150.549 130.410,149.958 130.368,149.906 130.450 C 149.855 130.532,149.720 144.159,149.606 160.732 L 149.400 190.864 146.114 192.294 C 144.252 193.104,142.938 193.899,143.080 194.130 C 143.229 194.371,143.072 194.436,142.691 194.290 C 142.340 194.155,141.964 194.260,141.857 194.522 C 141.728 194.841,141.653 194.813,141.632 194.438 C 141.612 194.091,141.234 194.302,140.644 194.988 C 140.118 195.601,139.488 195.978,139.244 195.827 C 139.000 195.676,138.800 195.765,138.800 196.025 C 138.800 196.378,138.647 196.371,138.200 196.000 C 137.716 195.599,137.599 195.608,137.594 196.051 C 137.589 196.482,137.505 196.471,137.200 196.000 C 136.869 195.487,136.811 195.502,136.806 196.100 C 136.803 196.485,136.609 196.800,136.376 196.800 C 136.143 196.800,136.064 196.980,136.200 197.200 C 136.336 197.420,136.212 197.627,135.924 197.659 C 135.636 197.692,135.130 197.755,134.800 197.800 C 134.470 197.845,133.964 197.908,133.676 197.941 C 133.388 197.973,133.264 198.180,133.400 198.400 C 133.659 198.819,133.606 198.841,132.017 199.000 C 131.476 199.055,130.975 199.276,130.902 199.493 C 130.830 199.709,130.103 199.834,129.286 199.770 C 128.137 199.679,127.960 199.743,128.503 200.048 C 128.890 200.265,129.385 200.333,129.603 200.198 C 129.821 200.063,130.000 200.163,130.000 200.420 C 130.000 200.722,129.636 200.795,128.966 200.627 C 128.368 200.477,128.029 200.524,128.162 200.739 C 128.288 200.943,128.078 201.085,127.696 201.055 C 127.041 201.003,126.994 202.906,126.898 233.510 L 126.795 266.019 125.810 266.468 C 125.268 266.715,124.937 267.098,125.074 267.320 C 125.212 267.543,125.126 267.601,124.882 267.450 C 124.361 267.129,120.800 268.714,120.800 269.268 C 120.800 269.476,120.636 269.546,120.436 269.422 C 119.779 269.016,118.650 269.653,119.266 270.082 C 119.643 270.343,119.558 270.385,118.979 270.224 C 116.692 269.589,116.801 267.894,116.755 304.749 C 116.720 332.789,116.805 338.558,117.256 338.846 C 117.555 339.037,132.920 339.190,151.400 339.188 L 185.000 339.183 184.896 304.873 L 184.791 270.564 186.124 270.082 C 187.689 269.516,189.600 269.447,189.600 269.957 C 189.600 270.153,189.150 270.426,188.600 270.564 L 187.600 270.815 187.606 304.308 C 187.610 324.718,187.760 338.034,187.992 338.400 C 188.323 338.924,192.640 339.011,222.285 339.089 L 256.200 339.179 256.096 304.830 L 255.991 270.481 257.255 270.041 C 257.951 269.798,260.203 269.600,262.260 269.600 L 266.000 269.600 266.055 265.300 C 266.085 262.935,266.064 247.566,266.008 231.146 C 265.910 202.362,265.933 201.277,266.653 200.858 C 267.197 200.543,261.297 200.421,244.985 200.412 C 223.517 200.401,222.504 200.367,221.030 199.615 C 219.921 199.050,219.290 198.938,218.772 199.215 C 218.376 199.427,217.951 199.600,217.826 199.600 C 217.702 199.600,217.600 184.140,217.600 165.243 L 217.600 130.887 218.600 130.636 C 219.570 130.392,219.600 130.279,219.613 126.892 C 219.633 121.663,219.716 121.600,226.564 121.600 L 232.000 121.600 232.000 123.000 C 232.000 123.978,232.181 124.400,232.600 124.400 C 232.930 124.400,233.200 124.580,233.200 124.800 C 233.200 125.716,260.717 125.302,261.212 124.378 C 261.718 123.432,261.620 121.664,261.015 120.823 C 260.698 120.382,260.727 120.323,261.140 120.571 C 261.576 120.834,261.594 120.735,261.231 120.057 C 260.586 118.853,259.339 118.306,257.940 118.613 C 255.809 119.081,253.215 118.471,252.720 117.385 C 252.480 116.857,252.131 116.519,251.946 116.633 C 251.761 116.748,251.703 116.596,251.819 116.296 C 252.036 115.728,250.674 114.244,249.864 114.166 C 248.538 114.039,248.370 113.972,248.572 113.645 C 248.692 113.450,248.388 113.183,247.896 113.051 C 246.576 112.697,246.118 112.760,246.800 113.200 M247.023 116.800 C 248.315 116.800,249.507 118.548,248.798 119.402 C 248.525 119.731,248.436 120.000,248.600 120.000 C 248.764 120.000,248.674 120.270,248.400 120.600 C 247.693 121.452,245.900 121.343,245.093 120.400 C 244.716 119.960,244.595 119.600,244.824 119.600 C 245.096 119.600,245.110 119.368,244.864 118.928 C 244.602 118.460,244.665 118.077,245.073 117.670 C 245.555 117.188,245.565 117.016,245.130 116.704 C 244.744 116.427,244.799 116.389,245.333 116.562 C 245.736 116.693,246.497 116.800,247.023 116.800 M275.300 156.200 C 275.207 187.593,275.370 196.400,276.043 196.400 C 276.220 196.400,278.616 195.320,281.368 194.000 C 284.119 192.680,286.557 191.600,286.785 191.600 C 287.013 191.600,287.200 191.465,287.200 191.300 C 287.200 191.135,284.591 191.000,281.402 191.000 L 275.605 191.000 275.500 157.400 L 275.395 123.800 275.300 156.200 M176.706 142.900 L 176.600 154.600 170.000 154.600 L 163.400 154.600 163.359 143.200 C 163.336 136.930,163.391 131.665,163.482 131.500 C 163.573 131.335,166.609 131.200,170.230 131.200 L 176.812 131.200 176.706 142.900 M335.190 143.412 C 334.499 144.245,335.294 146.000,336.363 146.000 C 337.064 146.000,338.400 145.046,338.400 144.545 C 338.400 143.034,336.160 142.243,335.190 143.412 M200.800 199.820 C 200.800 199.942,200.170 200.304,199.400 200.626 L 198.000 201.211 198.000 214.798 L 198.000 228.385 198.900 228.608 C 199.395 228.731,209.750 228.779,221.912 228.716 L 244.023 228.600 244.419 230.069 C 244.644 230.905,244.768 235.732,244.707 241.258 L 244.600 250.977 243.600 251.483 C 242.322 252.129,198.146 252.240,197.933 251.598 C 197.860 251.377,197.861 254.722,197.935 259.031 C 198.089 267.946,198.016 268.482,196.558 269.146 C 195.128 269.798,195.231 270.460,195.166 260.179 C 195.134 255.130,195.024 251.225,194.921 251.500 C 194.543 252.507,153.794 252.194,152.776 251.176 C 151.816 250.216,151.699 230.139,152.648 229.192 C 152.967 228.873,159.061 228.757,173.901 228.786 L 194.707 228.826 194.964 227.803 C 195.105 227.240,195.205 220.979,195.187 213.890 L 195.153 201.000 196.677 200.310 C 198.114 199.660,200.800 199.341,200.800 199.820 M154.400 212.600 L 154.400 224.400 147.600 224.400 L 140.800 224.400 140.800 212.810 L 140.800 201.219 147.500 201.099 C 151.185 201.033,154.245 200.939,154.300 200.890 C 154.355 200.840,154.400 206.110,154.400 212.600 M225.600 212.800 L 225.600 224.400 218.800 224.400 L 212.000 224.400 212.000 212.800 L 212.000 201.200 218.800 201.200 L 225.600 201.200 225.600 212.800 M316.945 206.489 C 316.779 206.757,316.680 207.454,316.724 208.038 C 316.824 209.350,316.397 209.713,313.464 210.810 L 311.138 211.681 310.243 210.840 C 308.875 209.555,307.959 209.811,305.686 212.113 C 303.406 214.421,303.191 215.106,304.400 216.200 C 306.258 217.882,303.966 222.781,301.315 222.794 C 299.712 222.802,299.092 224.600,299.522 228.000 L 299.800 230.200 301.445 230.320 C 303.083 230.440,303.094 230.452,304.192 233.250 L 305.294 236.058 304.247 237.151 C 302.818 238.643,302.878 238.852,305.471 241.383 C 307.997 243.849,308.179 243.912,309.600 242.800 C 310.798 241.863,311.970 241.790,313.024 242.587 C 313.451 242.910,314.070 243.183,314.400 243.193 C 315.523 243.229,316.049 243.875,316.190 245.394 C 316.377 247.405,316.832 247.623,320.600 247.502 L 323.800 247.400 323.922 245.727 L 324.043 244.053 326.848 242.982 L 329.653 241.910 330.552 242.755 C 331.925 244.045,332.839 243.791,335.114 241.487 C 337.505 239.066,337.553 238.881,336.204 237.278 L 335.208 236.094 336.408 233.447 C 337.487 231.066,337.725 230.800,338.771 230.800 C 341.049 230.800,341.200 230.578,341.200 227.237 C 341.200 223.964,340.850 223.200,339.353 223.200 C 338.054 223.200,337.200 222.790,337.200 222.168 C 337.200 221.867,336.801 220.799,336.312 219.794 C 335.703 218.540,335.546 217.802,335.812 217.440 C 336.026 217.150,336.543 216.426,336.962 215.832 L 337.723 214.752 335.762 212.746 C 332.987 209.908,332.559 209.732,331.091 210.817 C 329.885 211.709,329.866 211.710,327.839 210.998 C 324.611 209.864,324.400 209.697,324.400 208.266 C 324.400 207.548,324.184 206.744,323.920 206.480 C 323.265 205.825,317.351 205.832,316.945 206.489 M324.869 217.836 C 326.378 218.616,327.200 219.369,327.200 219.971 C 327.200 220.207,327.427 220.400,327.704 220.400 C 328.189 220.400,329.125 221.548,329.041 222.039 C 329.018 222.170,329.247 222.575,329.549 222.939 C 329.851 223.302,329.964 223.600,329.800 223.600 C 329.636 223.600,329.669 223.825,329.872 224.100 C 331.529 226.338,328.090 235.200,325.564 235.200 C 325.144 235.200,324.800 235.391,324.800 235.624 C 324.800 235.857,324.635 235.945,324.434 235.821 C 324.233 235.697,323.996 235.813,323.907 236.080 C 323.728 236.617,318.000 236.859,318.000 236.330 C 318.000 236.162,317.730 236.129,317.400 236.255 C 317.070 236.382,316.800 236.276,316.800 236.019 C 316.800 235.763,316.635 235.655,316.432 235.780 C 316.230 235.905,315.793 235.736,315.461 235.404 C 315.129 235.072,314.700 234.800,314.507 234.800 C 310.653 234.800,309.170 220.821,313.000 220.588 C 313.220 220.575,313.356 220.349,313.301 220.086 C 313.195 219.569,315.929 217.695,317.581 217.153 C 319.077 216.663,323.380 217.066,324.869 217.836 M199.600 238.976 C 199.600 239.293,199.780 239.664,200.000 239.800 C 200.220 239.936,200.400 239.677,200.400 239.224 C 200.400 238.771,200.220 238.400,200.000 238.400 C 199.780 238.400,199.600 238.659,199.600 238.976 M157.342 239.218 C 156.533 240.027,157.186 241.257,158.352 241.122 C 159.171 241.027,159.400 240.781,159.400 240.000 C 159.400 238.898,158.140 238.420,157.342 239.218 M237.084 239.050 C 236.489 239.645,236.791 241.200,237.500 241.194 C 238.599 241.184,239.292 240.573,239.135 239.752 C 238.991 238.995,237.611 238.523,237.084 239.050 M215.200 282.419 L 215.200 294.000 208.600 294.000 L 202.000 294.000 201.999 282.300 L 201.999 270.600 208.599 270.719 L 215.200 270.837 215.200 282.419 M144.000 282.400 L 144.000 294.000 137.400 294.000 L 130.800 294.000 130.800 282.400 L 130.800 270.800 137.400 270.800 L 144.000 270.800 144.000 282.400 M327.913 278.631 C 327.341 279.886,327.867 280.939,329.163 281.131 C 330.294 281.298,331.200 280.542,331.200 279.431 C 331.200 277.458,328.722 276.855,327.913 278.631 M90.900 348.687 C 91.505 348.778,92.495 348.778,93.100 348.687 C 93.705 348.595,93.210 348.520,92.000 348.520 C 90.790 348.520,90.295 348.595,90.900 348.687 " stroke="none" fill="#102846" fill-rule="evenodd"></path></g></svg>